<mxfile
  host="Electron" 
  agent="Mozilla/5.0 (Macintosh; Intel Mac OS X 10_15_7) AppleWebKit/537.36 (KHTML, like Gecko) draw.io/25.0.2 Chrome/128.0.6613.186 Electron/32.2.5 Safari/537.36" 
  version="25.0.2"
  >
  <diagram
    name="-"
    >
    <mxGraphModel
      grid="1" 
      gridSize="10" 
      guides="1" 
      tooltips="1" 
      connect="1" 
      arrows="1" 
      fold="1" 
      page="1" 
      pageScale="1" 
      pageWidth="1" 
      pageHeight="1" 
      math="0" 
      shadow="0"
      >
      <root>
        <mxCell
          id="page"
          />
        <mxCell
          id="root" 
          parent="page"
          />
        <mxCell
          style="verticalAlign=top;aspect=fixed;align=center;spacingLeft=5;spacingRight=5;spacingBottom=5;strokeColor=none;" 
          id="shape_" 
          parent="root" 
          value=" " 
          vertex="1"
          >
          <mxGeometry
            as="geometry" 
            width="41.91" 
            height="48" 
            x="0" 
            y="0"
            />
          </mxCell>
        <mxCell
          style="shape=image;verticalLabelPosition=bottom;labelBackgroundColor=default;verticalAlign=top;aspect=fixed;imageAspect=0;editableCssRules=.*;image=data:image/svg+xml,PHN2ZyB4bWxuczp4bGluaz0iaHR0cDovL3d3dy53My5vcmcvMTk5OS94bGluayIgeG1sbnM9Imh0dHA6Ly93d3cudzMub3JnLzIwMDAvc3ZnIiB2aWV3Qm94PSItMC4wMTAwMDAwNTAwNjc5MDE2MTEgMCAxOC4wMTAwMDAyMjg4ODE4MzYgMjMuMDIwMDAwNDU3NzYzNjcyIiB2ZXJzaW9uPSIxLjEiIGlkPSJMYXllcl8xIiB3aWR0aD0iMTguMDEwMDAwMjI4ODgxODM2IiBoZWlnaHQ9IjIzLjAyMDAwMDQ1Nzc2MzY3MiI+JiN4YTsgIDxzdHlsZSB0eXBlPSJ0ZXh0L2NzcyI+JiN4YTsJCS5zdDB7c3RvcC1jb2xvcjojMDBjZWFjO30mI3hhOwkJLnN0MXtzdG9wLWNvbG9yOiMwNzgzOGY7fSYjeGE7CSAgPC9zdHlsZT4mI3hhOyAgPGRlZnM+JiN4YTsgICAgPGxpbmVhckdyYWRpZW50IGlkPSJBIiB4MT0iMCIgeTE9IjAiIHgyPSIxOCIgeTI9IjIzIiBncmFkaWVudFVuaXRzPSJ1c2VyU3BhY2VPblVzZSI+JiN4YTsgICAgICA8c3RvcCBjbGFzcz0ic3QwIi8+JiN4YTsgICAgICA8c3RvcCBvZmZzZXQ9IjEiIGNsYXNzPSJzdDEiLz4mI3hhOyAgICA8L2xpbmVhckdyYWRpZW50PiYjeGE7ICA8L2RlZnM+JiN4YTsgIDxwYXRoIGZpbGw9InVybCgjQSkiIGQ9Ik0xNi45LDBjLjczLDAsMS4xLjM4LDEuMSwxLjEzdjYuODljMCwuNzgtLjM3LDEuMTctMS4xLDEuMTdzLTEuMTQtLjM5LTEuMTQtMS4xN1YyLjNoLTcuNDRsLS40NC40NXYyLjk3YzAsLjYzLS4yMiwxLjE3LS42NiwxLjYyLS40NC40NS0uOTcuNjgtMS41OC42OGgtMi45bC0uNDQuNXYxMi4yaDMuMzRjLjMyLDAsLjU5LjExLjc5LjMyLjIzLjIxLjM1LjQ4LjM1Ljgxcy0uMTIuNi0uMzUuODFjLS4yMS4yNC0uNDcuMzYtLjc5LjM2SDEuMTRjLS4zMiwwLS42LS4xMi0uODQtLjM2LS4yMS0uMjEtLjMxLS40OC0uMzEtLjgxdi0xMy44MmMwLS4yNy4xMi0uNTMuMzUtLjc3TDcuMDkuMzJjLjIxLS4yMS40Ny0uMzIuNzktLjMyaDkuMDJaTTE2LjksMTUuMjZjLjMyLjE4LjU5LjQ1Ljc5LjgxLjIxLjM2LjMxLjc1LjMxLDEuMTd2My40N2MwLC42My0uMjIsMS4xNy0uNjYsMS42Mi0uNDQuNDUtLjk3LjY4LTEuNTguNjhoLTQuNDljLS42MiwwLTEuMTQtLjIzLTEuNTgtLjY4LS40NC0uNDUtLjY2LS45OS0uNjYtMS42MnYtMy40N2MwLS40Mi4xLS44MS4zMS0xLjE3LjIxLS4zNi40Ny0uNjMuNzktLjgxdi0xLjQ5YzAtLjk2LjMyLTEuNzcuOTctMi40My42Ny0uNjYsMS40OC0uOTksMi40Mi0uOTlzMS43My4zMywyLjM4Ljk5Yy42Ny42NiwxLjAxLDEuNDcsMS4wMSwyLjQzdjEuNDlaTTEyLjM3LDE0Ljk0aDIuMjl2LTEuMTdjMC0uMzMtLjEyLS42LS4zNS0uODEtLjIxLS4yMS0uNDctLjMyLS43OS0uMzJzLS42LjEtLjg0LjMyYy0uMjEuMjEtLjMxLjQ4LS4zMS44MXYxLjE3Wk0xNS43NiwxNy4yNGgtNC40OXYzLjQ3aDQuNDl2LTMuNDdaIi8+JiN4YTs8L3N2Zz4;strokeColor=none;" 
          id="permissions_highlight_" 
          parent="shape_" 
          value=" " 
          vertex="1"
          >
          <mxGeometry
            width="21.909999999999997" 
            height="28" 
            as="geometry" 
            x="10" 
            y="10"
            />
          </mxCell>
        </root>
      </mxGraphModel>
    </diagram>
  </mxfile>